<svg version="1.1" xmlns="http://www.w3.org/2000/svg" viewBox="0 0 1056.4528455361724 610.6925656173378">
  <!-- svg-source:excalidraw -->
  <defs>
    <style>
      @font-face {
        font-family: "Virgil";
        src: url("https://excalidraw.com/FG_Virgil.woff2");
      }
      @font-face {
        font-family: "Cascadia";
        src: url("https://excalidraw.com/Cascadia.woff2");
      }
    </style>
  </defs>
  <rect x="0" y="0" width="1056.4528455361724" height="610.6925656173378" fill="#ffffff"></rect><g><g transform="translate(252 45.5) rotate(0 2.173681919714454 181.19271551994612)"><path d="M-0.04848705790936947 -0.5187723431736231 C0.8163352498784698 59.646145095381264, 4.927523735351879 301.334720229373, 5.880445332080148 361.74041411140934 M-1.533081492651254 1.8232682313211264 C-0.8920182453654669 62.0645761753091, 3.8520074110664613 302.71623064797063, 4.901016768123977 362.9042033830658" stroke="#000000" stroke-width="1" fill="none"></path></g></g><g><g transform="translate(252 43.5) rotate(0 300.9966223869473 -0.011247840952123056)"><path d="M-0.8611016537994146 -0.6379305515438318 C99.6953441315641 -0.543425269300739, 502.28986727135873 0.083055759097139, 602.8543464276939 -0.043588784709572836 M0.8876812486164272 1.6415519635565579 C101.40323978248362 1.4675402671781679, 502.1634287198695 -1.3422631791544457, 602.3548328386061 -1.6640476454608142" stroke="#000000" stroke-width="1" fill="none"></path></g></g><g><g transform="translate(260 414.5) rotate(0 306.8815103268158 -1.865807673707593)"><path d="M0.7274164292961358 1.1184585537761451 C103.19860690968731 0.120804183309277, 512.2536328011503 -4.057722341393431, 614.1128493282944 -4.850073901191354 M-0.3498286746628583 0.6600453491695224 C102.12321551912154 0.302990182408442, 511.32567115280153 -2.6844497824025653, 613.7490497620217 -3.7589374480955304" stroke="#000000" stroke-width="1" fill="none"></path></g></g><g><g transform="translate(852 41.5) rotate(0 3.4194450888782058 183.94052222867498)"><path d="M-1.0177720930427312 -0.8767032656818627 C0.20984335479636984 60.38191270890335, 6.4382864012072485 305.6895393417527, 7.856662270799279 367.1444737520069 M0.6487588287703692 1.2774235744960607 C1.662851097912838 62.788680683939404, 5.864767892888437 307.97762428439535, 6.833364499341696 368.7577477230318" stroke="#000000" stroke-width="1" fill="none"></path></g></g><g transform="translate(301 91.5) rotate(0 98 37.5)"><path d="M1.0602109972387552 1.4450477119535208 C60.3396162942052 -1.1009113161638377, 117.751889404282 0.4803558618947865, 194.21681630052626 -0.06035729683935642 M-0.38455085176974535 -0.6541657773777843 C44.79441801775247 -1.2589790055155752, 88.49202072974295 -0.16213519662618614, 196.178203987889 0.08469938952475786 M195.71458231844008 -1.396906578913331 C197.31561750150286 24.84235223056749, 194.14672768092714 53.79356134217233, 196.1377834621817 73.94550297223032 M195.67410628776997 0.7846169443801045 C195.50501230475493 15.732162869069725, 194.38944167015143 32.4244569092989, 196.7496661124751 74.13291528541595 M195.14603226818144 73.1236173864454 C119.64151176735758 74.74230032060295, 41.22896552495658 72.18856154773384, 0.6913590375334024 75.59210077486932 M196.7673045573756 75.55828907806426 C123.66635081265122 76.18026465781033, 52.919907375238836 76.01218346364796, 0.4840568182989955 74.90667611081153 M0.1295242253690958 75.26388279162347 C2.479562763357535 57.20437069935724, -0.6619260867591947 42.17699933890253, 0.0685220304876566 -0.3730663303285837 M0.6926208613440394 74.50159793812782 C0.043290485395118594 53.827112067025155, 0.34361531282775104 31.374974409118288, -0.7946798028424382 0.011236992664635181" stroke="#000000" stroke-width="1" fill="none"></path></g><g transform="translate(583 88.5) rotate(0 106 37.5)"><path d="M0.8519132802698619 -0.16424489349302127 C58.377194264995246 -0.7488420569728663, 120.75648087311006 0.7574357772057005, 212.23220957346362 1.6598342618014685 M0.03014874781054817 -0.1641440370292183 C46.76333375920237 -0.12118102213218629, 93.87583785178889 0.9684415915713388, 211.56141994144937 -0.32200709671210015 M210.41064039431512 0.022473985329270363 C212.79254297562875 24.355382222216576, 212.59807429858483 49.600333076901734, 213.66201219521463 73.99067520536482 M211.64907103497535 0.30792929511517286 C212.61041003721766 17.433080287184566, 211.71989289182238 37.59059803187847, 211.6494861515239 75.34602020960301 M212.31297103367433 75.0586032938839 C131.52776043424248 74.44159058852362, 52.09374540063172 76.74410474055651, -0.6384309487407438 73.93312133555382 M211.69618046950882 74.94746205969408 C145.95544379057057 76.28025078317212, 80.51416053372053 76.46637802250659, 0.6761194525511798 75.54572289799779 M0.1502795573323965 73.1445119921118 C2.0627773550804704 55.66558611439541, 1.0876728442963213 34.14374679978936, 0.313650107011199 0.2043155375868082 M0.9973424645140767 75.71810455899686 C-0.6610553197097033 58.52010551514104, 0.08932528574950993 41.209880938753486, -0.11275229137390852 -0.6658569099381566" stroke="#000000" stroke-width="1" fill="none"></path></g><g><g transform="translate(279.85903336960826 188.75271364189683) rotate(0 268.0402080025524 -4.237325658984503)"><path d="M0.8643751468509435 0.25271364189684387 C90.2201298714988 -0.8560972398705795, 446.77007851814847 -5.665472243819393, 536.2213826354965 -6.909548094458887 M-0.14096663039177648 -0.6602156414464115 C89.00893525550141 -2.101406049113722, 445.4627369693107 -7.879376189466573, 535.0319463732093 -8.727364959865817" stroke="#000000" stroke-width="1" fill="none"></path></g></g><g><g transform="translate(300.15651606012136 210.0401224286482) rotate(0 0.40079710968586824 47.16490506399424)"><path d="M0.5606065716594457 1.039820573106408 C0.7006662400004756 16.701173677897696, 1.031107442794985 78.39288423138979, 1.42236835930496 93.78968769934025 M-0.6042137075588108 0.5401224286481736 C-0.7099488468902815 15.8403143741625, -0.2977042423871694 76.14402880362543, 0.2532372158765748 91.84026326775547" stroke="#000000" stroke-width="1" fill="none"></path></g></g><g><g transform="translate(297 214.5) rotate(0 98.26619308228604 -2.4171439586114047)"><path d="M0.9053800676018 -0.39875679351389404 C33.8170287185659 -0.7067261053870122, 163.8974737181018 -2.34615350899597, 196.61082029081882 -2.893741885200143 M-0.07843412624672053 -1.6537080554477872 C32.716308777661375 -2.178993507853399, 162.69252855115258 -4.344307312996437, 195.45845547987147 -4.435531123708934" stroke="#000000" stroke-width="1" fill="none"></path></g></g><g><g transform="translate(298 304.5) rotate(0 95.99740414406173 -0.5145619962643764)"><path d="M1.1451234195381403 -0.5474154744297266 C33.08654985167086 -1.0854433291902144, 159.71687761284412 -2.667417068655292, 191.70763380266726 -2.8087114486843348 M0.2871744854561986 1.7795874561555682 C32.03982850564643 1.3384627258467177, 158.50461949063464 -0.8292342414769033, 190.60609608544036 -1.695859708022326" stroke="#000000" stroke-width="1" fill="none"></path></g></g><g><g transform="translate(491 211.5) rotate(0 -0.029919914780919044 46.93954425947743)"><path d="M1.1655780527740716 0.418185457214713 C1.0928927753120659 15.72715708874166, 0.16057977415621277 77.24627829454839, -0.16979478858411312 92.83576025627553 M0.31836780114099383 -0.4078711230866612 C0.04950146419927476 15.005178363192828, -1.4287347133643926 78.86665118740872, -1.2069825162179768 94.28695964204148" stroke="#000000" stroke-width="1" fill="none"></path></g></g><g><g transform="translate(585 206.5) rotate(0 -0.3982802721216103 48.4061244897172)"><path d="M0.2653039779514075 0.08831969238817683 C0.24447265130778154 16.272684611255922, 0.1342059380064406 80.12150017557045, -0.12012873031199 96.46605910994113 M-1.0545501629635692 -0.9109164144471288 C-1.1568392249072592 15.487107835027079, -0.421454813492795 81.50136455596736, -0.6062417773529889 97.7231653938815" stroke="#000000" stroke-width="1" fill="none"></path></g></g><g><g transform="translate(582 206.5) rotate(0 103.93659029342234 -1.6499462101608628)"><path d="M-0.7511449243873358 0.6833548989146947 C34.06072701352338 0.0203364537407954, 173.8543591671934 -3.2953070753564435, 208.62432551123203 -3.9832473192363977 M1.0553652609698476 -0.003487724494189104 C35.78544867747153 -0.4602231051834922, 173.67427886101729 -1.5217665016961592, 208.00405094100162 -2.437026910614222" stroke="#000000" stroke-width="1" fill="none"></path></g></g><g><g transform="translate(584 297.5) rotate(0 101.46656780052928 -2.494499215111148)"><path d="M0.30936541222035885 0.5778132889419794 C34.007638470952706 -0.15003530842562518, 168.13824738326173 -4.593895906830827, 201.82527051828802 -5.566811719164252 M-0.9873564757034183 -0.16443867970258008 C33.091988650051256 -0.6325400424872838, 170.19470839052153 -3.674614469694595, 203.92049207676203 -4.326962620504201" stroke="#000000" stroke-width="1" fill="none"></path></g></g><g><g transform="translate(788 201.5) rotate(0 1.7143686877563482 47.10092668723314)"><path d="M1.110038920864463 0.28874904848635197 C1.2722989485909544 15.909214100614191, 0.9034548884878557 77.70425553061068, 1.0053194846957922 93.1768457505852 M0.23367062497884028 -0.6052616463974119 C0.7580958784495789 15.282815306298433, 3.099149835991363 78.9550664724037, 3.195066750533879 94.8071150208637" stroke="#000000" stroke-width="1" fill="none"></path></g></g><g transform="translate(212.5 10) rotate(0 19.5 12.5)"><text x="0" y="18" font-family="Virgil" font-size="20px" fill="#000000" text-anchor="start" style="white-space: pre;">VPC</text></g><g><g transform="translate(79.58138537146152 478.55326581858094) rotate(0 223.3914930840955 1.7556997553539304)"><path d="M-0.4186146285384893 1.0532658185809851 C74.02263615621875 1.1597896819344595, 372.744479726938 1.6303632537680035, 447.2016007967294 1.8114160020091732 M1.5624739621393382 0.5606264279969038 C75.84922381360705 1.3125994725494516, 372.5910311822532 2.505662773906655, 446.5655779125356 2.9507730827109118" stroke="#000000" stroke-width="1" fill="none"></path></g></g><g><g transform="translate(80.15691760676799 484.50873739939186) rotate(0 -0.46097904810258683 56.86304182875904)"><path d="M-0.8354325447231531 0.035633668676018804 C-1.0718424650077982 19.28588142494981, -1.6945547784591535 95.91383808009945, -1.8840969466686033 114.71734625812617 M0.9268266399577261 -0.9912626006081701 C1.119510513303681 17.98549749835704, 0.5183365468581697 93.88100247260802, 0.4460884362563706 112.97596542954442" stroke="#000000" stroke-width="1" fill="none"></path></g></g><g><g transform="translate(78 599.5) rotate(0 224.5685509941168 -0.5452094892040122)"><path d="M0.47633553408086304 1.192565617337823 C75.4853322347626 0.7389708925659457, 374.8891843019053 -1.6512293942893543, 449.86982902809973 -2.282984595745802 M-0.7327270398661494 0.7730586211010815 C74.128666619882 0.47307499008874104, 373.7958620915562 -0.43764515774945423, 448.88761368434876 -0.8198428009077907" stroke="#000000" stroke-width="1" fill="none"></path></g></g><g><g transform="translate(525 483.5) rotate(0 -1.4831063884310538 54.3806568109523)"><path d="M0.39894381500780574 -0.18310575820505615 C-0.04459209213964649 17.808453660461424, -2.220532908057794 90.62266180889368, -2.6806326122023165 109.0631763819791 M-0.8507494114525617 -1.3248402266018093 C-1.406687357770279 17.297886404193314, -3.0575535492692145 91.8092898924245, -3.3651565918698907 110.08615384850648" stroke="#000000" stroke-width="1" fill="none"></path></g></g><g transform="translate(10 444) rotate(0 86 12.5)"><text x="0" y="18" font-family="Virgil" font-size="20px" fill="#000000" text-anchor="start" style="white-space: pre;">VPC Compliance &nbsp;</text></g><g transform="translate(102 506) rotate(1.23197740263973 119 10)"><text x="0" y="14" font-family="Virgil" font-size="16px" fill="#000000" text-anchor="start" style="white-space: pre;">Compliance Resources (Audits)</text></g><g transform="translate(265 11) rotate(0 93 12.5)"><text x="0" y="18" font-family="Virgil" font-size="20px" fill="#000000" text-anchor="start" style="white-space: pre;">dataplane Network</text></g><g transform="translate(308.5 111) rotate(0 43.5 20)"><text x="0" y="14" font-family="Virgil" font-size="16px" fill="#000000" text-anchor="start" style="white-space: pre;">us-east-1a</text><text x="0" y="34" font-family="Virgil" font-size="16px" fill="#000000" text-anchor="start" style="white-space: pre;">10.0.10.0/24</text></g><g transform="translate(594 109) rotate(0 48 20)"><text x="0" y="14" font-family="Virgil" font-size="16px" fill="#000000" text-anchor="start" style="white-space: pre;">us-east-1b</text><text x="0" y="34" font-family="Virgil" font-size="16px" fill="#000000" text-anchor="start" style="white-space: pre;">10.0.20.0/24</text></g><g><g transform="translate(277 83.5) rotate(0 0.4767143453192091 53.83111510651186)"><path d="M-0.1954526212066412 -0.29347826577723024 C0.3308540040006239 17.52029378078878, 2.186839546139041 89.66506501100957, 2.710632667317986 107.74948410652578 M-1.7572039766795935 -1.4931583006493747 C-1.2876076620506747 16.427211818564686, 1.396311438909421 90.63280093001202, 2.135669354032725 109.1553885136731" stroke="#000000" stroke-width="1" fill="none"></path></g></g><g><g transform="translate(279.4295166848042 78.62635682094833) rotate(0 270.25840710316794 -3.3829165967367487)"><path d="M0.47434056736528873 0.8935272898524997 C90.54557212691134 -0.13568008185364056, 451.21131912820664 -4.853453432070078, 541.2525835704431 -6.0253804540447735 M-0.7357693641074001 0.3170251716859638 C89.19761965410164 -1.049495078986508, 450.6975536951299 -6.2646734807919575, 540.8588375535794 -7.659360483326002" stroke="#000000" stroke-width="1" fill="none"></path></g></g><g><g transform="translate(822 75.5) rotate(0 1.1178814802598254 53.715851931916546)"><path d="M0.8917418930679559 -1.1270797166973352 C1.105620997523268 16.69783811233938, 2.1931365384409824 89.22718041799962, 2.334995302930474 107.35826775692404 M-0.09923234241083256 0.8955994866974653 C-0.10608799692864208 18.832966924179345, 1.4059143521698814 90.57502692567184, 1.562822373341769 108.55878358053043" stroke="#000000" stroke-width="1" fill="none"></path></g></g><g transform="translate(415.5 97.5) rotate(0 15.5 10)"><text x="0" y="14" font-family="Virgil" font-size="16px" fill="#000000" text-anchor="start" style="white-space: pre;">LB-1</text></g><g transform="translate(728 96.5) rotate(0 20 10)"><text x="0" y="14" font-family="Virgil" font-size="16px" fill="#000000" text-anchor="start" style="white-space: pre;">LB-2</text></g><g transform="translate(306.5 251.5) rotate(0 47.5 20)"><text x="0" y="14" font-family="Virgil" font-size="16px" fill="#000000" text-anchor="start" style="white-space: pre;">us-east-1a</text><text x="0" y="34" font-family="Virgil" font-size="16px" fill="#000000" text-anchor="start" style="white-space: pre;">10.0.50.0/24</text></g><g transform="translate(592.5 250.5) rotate(0 45.5 20)"><text x="0" y="14" font-family="Virgil" font-size="16px" fill="#000000" text-anchor="start" style="white-space: pre;">us-east-1b</text><text x="0" y="34" font-family="Virgil" font-size="16px" fill="#000000" text-anchor="start" style="white-space: pre;">10.0.60.0/24</text></g><g transform="translate(392 220.5) rotate(0 45 10)"><text x="0" y="14" font-family="Virgil" font-size="16px" fill="#000000" text-anchor="start" style="white-space: pre;">WebServer-1</text></g><g transform="translate(683.5 215.5) rotate(0 49.5 10)"><text x="0" y="14" font-family="Virgil" font-size="16px" fill="#000000" text-anchor="start" style="white-space: pre;">WebServer-2</text></g><g><g transform="translate(584 481.5) rotate(0 227.09517993559126 -3.6624522790312426)"><path d="M1.1278443440794945 0.5743330612778663 C76.31082178205251 -0.5550918762882553, 376.6690288648009 -6.474333860973518, 451.8312009438872 -7.89923761934042 M0.26082389538176365 -0.16974602689035234 C75.72934319947846 -0.987751308477794, 378.2191501498688 -5.229782349762196, 453.92953597580083 -6.308912118272856" stroke="#000000" stroke-width="1" fill="none"></path></g></g><g><g transform="translate(593.5 592.5) rotate(0 226.01129098790233 -4.22335468381641)"><path d="M0.3468033894896507 0.5464140549302101 C75.88666559308767 -0.9984893982609115, 377.3541011914611 -7.748053648571174, 452.9528455361724 -8.993123422563077 M-0.9302635603677482 -0.21232251157052806 C74.47250501130708 -1.6639325294860947, 376.21388544802556 -6.562205025848622, 451.9800439790357 -7.977087968187407" stroke="#000000" stroke-width="1" fill="none"></path></g></g><g><g transform="translate(584 481.5) rotate(0 1.7316879667574767 58.90308942114467)"><path d="M0.02320509999990472 -0.6666179046034812 C0.9170935894052188 18.824654179314773, 4.292364067335924 97.70589437236389, 4.887126885354519 117.30188294798135 M-1.423750951839611 1.5978037501405926 C-0.5685922943086675 21.201361426316822, 3.732236333734666 99.13006570607735, 4.404823036538437 118.47279674689285" stroke="#000000" stroke-width="1" fill="none"></path></g></g><g><g transform="translate(1037 473.5) rotate(0 2.899328131251991 52.681251542223606)"><path d="M0.6480517968535422 0.5082859173417091 C1.5276494130492209 18.064817298948764, 5.24319444745779 87.13917323499919, 6.26951600164175 104.40691524893046 M-0.47085973913781354 -0.27046792139299214 C0.18750533674843595 17.520110183758664, 4.307252663420513 88.09331597159617, 5.462966438876465 105.63297100584023" stroke="#000000" stroke-width="1" fill="none"></path></g></g><g transform="translate(602 508.5) rotate(1.23197740263973 135 10)"><text x="0" y="14" font-family="Virgil" font-size="16px" fill="#000000" text-anchor="start" style="white-space: pre;">Control Plane(Monitoring, Security)</text></g><g transform="translate(625 449) rotate(0 96 12.5)"><text x="0" y="18" font-family="Virgil" font-size="20px" fill="#000000" text-anchor="start" style="white-space: pre;">VPC Controlplane &nbsp;</text></g></svg>